# xmcd CD database file
#
# Track frame offsets:
#	150
#	54610
#	133452
#	195687
#
# Disc length: 3710 seconds
#
# Revision: 0
# Processed by: cddbd v1.5.2PL0 Copyright (c) Steve Scherf et al.
# Submitted via: CDex 1.51
#
DISCID=3c0e7c04
DTITLE=Barthelmes, Johannes - Blues for George
DYEAR=1996
DGENRE=Jazz
TTITLE0=Steam
TTITLE1=Kalimera Kastri
TTITLE2=Trane's Tree
TTITLE3=Blues for George
EXTD=YEAR: 1996
EXTT0=
EXTT1=
EXTT2=
EXTT3=
PLAYORDER=
